<svg width="634" height="444" viewBox="0 0 634 444" xmlns="http://www.w3.org/2000/svg"><title>ai-article-gutcheck</title><g fill-rule="nonzero" fill="none"><path d="M132.482 345.896C96.73 319.82 62.27 289.652 33.985 242.827 5.843 196.003-16.27 132.66 15.893 116.961c32.163-15.563 118.456 16.518 179.047 6.416 60.592-10.238 95.483-62.796 133.101-71.943 37.619-9.01 78.109 25.528 132.527 72.899 54.417 47.37 122.619 107.437 119.317 160.95-3.16 53.514-77.822 100.475-146.024 121.089-68.058 20.613-129.51 15.153-178.903 1.365-49.392-13.788-86.724-35.767-122.476-61.841z" fill="#EF2673"/><path fill="#8BDEFC" d="M223.384 439.708h-7.677V352.01h7.677z"/><path fill="#00ACE8" d="M219.544 439.708h-3.841V352.01h3.841z"/><path fill="#8BDEFC" d="M430.242 218.707h-7.594v-10.09h7.594zM151.91 287.686h-7.594v-10.09h7.593z"/><path d="M148.045 289.984h211.888c4.066 0 9.847-2.717 12.843-6.029l55.687-61.641c2.996-3.319 2.119-6.029-1.947-6.029H214.628c-4.065 0-9.847 2.717-12.843 6.029L146.1 283.955c-2.997 3.319-2.12 6.029 1.946 6.029z" fill="#8BDEFC"/><path d="M216.337 193.265h207.785c5.192 0 9.443-4.254 9.443-9.45V55.189c0-5.196-4.25-9.45-9.443-9.45H216.337c-5.192 0-9.443 4.254-9.443 9.45v128.626c0 5.196 4.251 9.45 9.443 9.45z" fill="#D2F3FF"/><path fill="#FFF" d="M287.298 180.448h-15.583v-68.92h15.583zM268.725 180.448h-15.583v-68.92h15.583zM250.147 180.448h-15.583v-68.92h15.583zM231.574 180.448h-15.583v-68.92h15.583z"/><path fill="#EF2673" d="M287.298 156.927h-15.583v-4.165h15.583zM268.725 137.706h-15.583v-4.293h15.583zM250.147 134.594h-15.583v-4.254h15.583zM231.574 122.89h-15.583v-4.293h15.583z"/><path d="M304.964 132.354c11.716 0 20.275 10.77 33.7 11.488 13.433.717 19.144-5.113 35.252-4.895 16.108.218 21.716 13.275 44.053 13.3v28.191H304.964v-48.084z" fill="#8BDEFC" opacity=".7"/><path d="M417.97 161.839c-11.717 0-16.71-12.167-30.136-11.462-13.432.705-25.782 22.11-41.896 22.322-16.108.218-18.637-10.886-40.974-10.86v18.606h113.005v-18.606z" fill="#FFF"/><path d="M148.045 280.053h211.888c4.066 0 9.847-2.716 12.843-6.029l55.687-61.64c2.996-3.32 2.119-6.03-1.947-6.03H214.628c-4.065 0-9.847 2.717-12.843 6.03l-55.686 61.64c-2.997 3.319-2.12 6.03 1.946 6.03z" fill="#D2F3FF"/><path fill="#29ABE2" d="M350.336 273.204h14.917l6.428-6.778h-14.917zM331.77 273.204h14.917l6.434-6.778h-14.917zM313.21 273.204h14.917l6.428-6.778h-14.918zM252.401 273.204l45.334-.128 15.187-16.01-45.335.127z"/><path fill="#8BDEFC" d="M331.77 251.389l52.524-.129 22.798-24.34-52.524.135z"/><path fill="#29ABE2" d="M271.614 251.26h1.537l22.971-24.205h-1.536zM358.98 263.972h14.916l6.428-6.779h-14.917zM340.413 263.972h14.917l6.434-6.779h-14.923zM321.846 263.972h14.917l6.435-6.779H328.28zM554.875 330.283v-34.328c0-5.042-4.123-9.168-9.162-9.168h-67.396v-8.688c0-5.042 4.123-9.168 9.161-9.168h97.75c5.038 0 9.161 4.126 9.161 9.168v155.804c0 5.042-4.123 9.168-9.161 9.168h-97.75c-5.038 0-9.161-4.126-9.161-9.168v-91.715a2.733 2.733 0 0 1 2.734-2.736h64.662c5.039 0 9.162-4.126 9.162-9.169z"/><path fill="#D2F3FF" d="M625.292 366.016h-47.35V338.12h47.35z"/><path fill="#FFF" d="M608.456 366.016h-47.35V338.12h47.35z"/><path fill="#29ABE2" d="M525.662 339.455h-47.35v-33.521h47.35z"/><path fill="#8BDEFC" d="M510.047 339.455h-31.736v-33.521h31.736z"/><path d="M518.638 330.283v-34.328c0-5.042-4.123-9.168-9.161-9.168h-58.709c-4.795 0-8.681-3.89-8.681-8.688 0-5.042 4.123-9.168 9.161-9.168h97.75c5.038 0 9.161 4.126 9.161 9.168v155.804c0 5.042-4.123 9.168-9.161 9.168h-97.75c-5.038 0-9.161-4.126-9.161-9.168v-91.715a2.733 2.733 0 0 1 2.733-2.736h64.663c5.032 0 9.155-4.126 9.155-9.169z" fill="#8BDEFC"/><path d="M451.248 443.071c-5.038 0-9.161-4.126-9.161-9.168v-91.715a2.733 2.733 0 0 1 2.733-2.736h64.663c5.038 0 9.162-4.126 9.162-9.169v-34.328c0-5.042-4.124-9.168-9.162-9.168h-58.709c-4.795 0-8.681-3.89-8.681-8.688 0-5.042 4.123-9.168 9.162-9.168h97.749c-13.163 3.773 1.453 69.2-34.265 99.87-23.829 20.458-33.983 74.276-33.983 74.276h-29.508v-.006z" fill="#FFF" opacity=".3"/><path d="M461.581 280.643c0-1.096.89-1.987 1.985-1.987a1.987 1.987 0 0 1 0 3.973 1.983 1.983 0 0 1-1.985-1.986zM456.492 280.643c0-1.096.89-1.987 1.984-1.987a1.987 1.987 0 0 1 0 3.973 1.987 1.987 0 0 1-1.984-1.986zM451.408 280.643c0-1.096.89-1.987 1.985-1.987a1.987 1.987 0 0 1 0 3.973 1.987 1.987 0 0 1-1.985-1.986z" fill="#2E3192"/><path fill="#1B1464" d="M633.45 369.196h-53.24v-3.55h53.24z"/><path fill="#2E3192" d="M611.401 369.196h-53.24v-3.55h53.24z"/><path d="M407.681 433.307h12.145c.352 0 .64-.288.64-.64a.642.642 0 0 0-.64-.642h-12.145c-6.204 0-11.255-5.055-11.255-11.263V290.28c0-6.92-5.621-12.545-12.536-12.545h-10.134a.642.642 0 0 0-.64.64c0 .353.287.641.64.641h10.134c6.204 0 11.255 5.055 11.255 11.264v130.483c0 6.92 5.622 12.545 12.536 12.545z" fill="#0071BC"/><path d="M409.045 426.874h12.727c.352 0 .64-.288.64-.64a.642.642 0 0 0-.64-.641h-12.727c-3.336 0-6.05-2.717-6.05-6.055v-130.15c0-9.976-8.112-18.087-18.074-18.087h-4.597a.642.642 0 0 0-.64.641c0 .352.288.64.64.64h4.597c9.264 0 16.793 7.542 16.793 16.806v130.157c0 4.043 3.29 7.33 7.33 7.33z" fill="#0071BC"/><path d="M428.155 352.548c-3.29-8.054-11.62-2.16-27.6-8.144-15.973-5.977-15.275-8.393-19.302-8.527-4.027-.135-1.21-2.243 5-3.569s17.593 2.012 28.208 1.442c10.608-.57 17.561 11.462 16.787 15.812-.775 4.35-.84 3.434.486 7.464 1.325 4.03 2.907 42.85 2.395 50.109-.02.281-1.127.403-1.127 0-.045-5.773-1.863-43.606-2.555-47.68-.685-4.063-2.292-6.907-2.292-6.907z" fill="#2E3192"/><path d="M429.103 407.487c2.202-30.1 5.589-69.63 8.457-82.976 2.868-13.346 27.46-6.99 37.485-4.01 10.026 2.978 18.592 2.799 20.212 8.866 1.62 6.068 2.235 9.848.864 10.328-1.37.48-1.28-2.716-6.818-2.665-5.538.058-18.925 4.453-32.382.058-13.458-4.396-14.924-8.566-17.062-6.484-2.139 2.082-2.139 5.35-2.709 7.669-.563 2.32-6.011 66.664-6.35 69.54-.11.904-1.736.174-1.697-.326z" fill="#2E3192"/><path d="M404.237 392.367c7.004-3.07 18.374-8.643 20.986-17.741 1.927-6.715 3.49-5.062 3.752-1.922.294 3.568 2.03 34.091 2.132 36.02.057 1.101 1.216.736 1.21.377-.058-2.312-1.863-36.865-2.503-38.761-.64-1.89-1.665-2.006-2.35-3.274-.87-1.609-1.159-2.358-5.852-3.422-4.693-1.07-16.3 9.995-17.369 16.524-1.076 6.528-1.357 9.239-1.639 10.462-.294 1.243.538 2.217 1.633 1.737z" fill="#2E3192"/><path d="M449.737 323.659c9.776 3.67 23.048-.73 32.927 1.832 9.13 2.37 12.139 3.678 10.359 12.212-.845-.398-2.017-.692-3.72-.673-5.538.058-18.925 4.453-32.382.058-13.458-4.396-14.924-8.566-17.062-6.484a6.082 6.082 0 0 0-1.057 1.397c0-.007 1.16-12.013 10.935-8.342z" fill="#2E3192" opacity=".5"/><path d="M435.198 405.872c.333-6.541 1.594-34.104 5.294-45.675 3.7-11.57 17.92-7.348 24.45-4.798 6.53 2.543 10.174 7.637 13.701 10.123 3.528 2.485.23 2.774-1.158 2.14-1.39-.635-11.403 3.645-19.777.115s-11.876-8.534-14.258-6.932c-2.381 1.608-3.943 11.699-4.347 18.343-.403 6.637-2.67 26.089-2.92 26.973-.089.307-1.004.121-.985-.289z" fill="#2E3192"/><path d="M423.693 403.143H411.9v35.661a4.275 4.275 0 0 0 4.27 4.273h28.433a4.563 4.563 0 0 0 4.558-4.568l-.026-35.366h-25.442z" fill="#FFF"/><path d="M421.932 403.137H411.9v35.046a4.886 4.886 0 0 0 4.885 4.888h25.942c-34.04-1.39-12.459-28.408-20.795-39.934z" fill="#8BDEFC" opacity=".7"/><path d="M216.337 45.739H405.71c-26.428 0-49.457 53.152-80.207 59.552-57.127 11.892-55.06 47.655-118.608 47.655V55.19c0-5.196 4.251-9.45 9.443-9.45z" fill="#FFF" opacity=".3"/><path d="M224.027 244.809c40.545-4.12 43.458-4.408 46.98-6.65 3.52-2.243 8.994-5.722 13.245-6.126 4.251-.397 8.714 2.749 9.565 4.632.845 1.884-7.618 1.916-10.032 2.627-2.471.73-3.873 1.224-3.63 2.083.397 1.403 4.104-.718 5.263-.923 1.158-.205 1.382 1.256.819 1.672-.563.423-6.838 3.53-9.77 3.415-2.932-.115-3.841-.903-8.905.647-5.058 1.55-38.977 12.603-38.977 12.603l-4.558-13.98z" fill="#8BDEFC"/><path d="M233.098 250.197s36.384-6.618 41.404-10.905c4.379-3.741 9.334-4.606 17.004-5.048 1.146.813 1.985 1.704 2.305 2.421.845 1.884-7.619 1.916-10.032 2.627-2.472.73-3.874 1.224-3.63 2.083.396 1.403 4.103-.718 5.262-.923 1.159-.205 1.383 1.256.82 1.672-.564.423-6.838 3.53-9.77 3.415-2.932-.115-3.842-.903-8.906.647-5.057 1.55-38.977 12.603-38.977 12.603l-2.516-7.708 7.036-.884z" fill="#2E3192" opacity=".5"/><path d="M224.897 179.855s2.395 16.684 1.703 23.097c-.999 9.258-2.586 14.025-6.92 14.39-4.693.391-3.99 12.32-1.063 11.264 4.097-1.487-15.103 8.06-15.103 8.06s-11.383-15.07-6.511-28.402c4.872-13.34 11.46-24.417 16.357-28.402 4.892-3.992 11.537-.007 11.537-.007zM241.421 221.34s26.858-8.297 34.528-13.967c16.844-12.449 40.302-41.613 44.002-40.742 2.702.635-4.43 4.953-3.7 10.47.109.839 4.718 6.752.416 10.167-5.877 4.67-8.285 1.544-11.377 5.062-4.77 5.426-17.152 25.057-21.428 27.947-3.265 2.204-39.252 19.009-39.252 19.009l-3.189-17.946z" fill="#8BDEFC"/><path d="M271.64 342.662c-1.005 7.233-5.788 23.417-6.255 40.479-.563 20.591 3.13 42.471.647 51.454-1.467 5.311-.141 8.662.986 8.662 1.606 0 13.009.013 17.964 0 1.313-.007 4.988.102 5.333-2.102.55-3.543-13.156-4.376-14.117-8.45-1.037-4.37 2.203-13.846 4.399-24.526 5.16-25.07 15.525-60.328 11.108-69.291-.654-1.326-11.57-13.55-19.36-8.867-7.805 4.69-.167 8.752-.705 12.64z" fill="#7DD7EF"/><path d="M277.863 360.864l9.322 18.324c-2.254 9.86-4.75 20.072-6.588 28.99-2.196 10.681-5.436 20.157-4.399 24.52.967 4.075 14.668 4.908 14.124 8.45-.34 2.205-4.021 2.102-5.333 2.102-4.008.013-12.21.007-16.064 0 4.456-.134 4.533-4.952 2.42-8.11-2.125-3.166-2.003-37.52 6.518-74.276z" fill="#2E3192" opacity=".5"/><path d="M243.092 324.472s36.736 7.484 41.916 18.997c4.77 10.61 14.29 84.981 20.98 88.403 6.575 3.363 24.015 7.13 20.404 10.565-1.53 1.454-26.672.576-29.169.57-5.051-.006-1.344-7.586-2.567-9.514-3.675-5.799-17.126-34.662-23.573-51.91-9.034-24.173-8.24-34.853-9.763-35.833-2.747-1.769-18.228-21.278-18.228-21.278z" fill="#8BDEFC"/><path d="M221.478 301.94c22.395 3.69 45.514 16.587 58.357 25.672 10.416 7.374 12.695 9.674 12.657 12.18-.134 9.533-40.09 37.736-40.09 25.41V353.7a8.865 8.865 0 0 0-8.983-8.867l-56.807.916c-14.136.653-14.668-20.707-14.15-26.71 1.237-14.25 38.587-18.824 49.016-17.1z" fill="#EF2673"/><path d="M245.64 220.783c4.495.173 10.846 10.795 3.17 15.882-7.677 5.088-15.225 10.239-15.808 19.164-.614 9.399 1.127 13.813-8.975 22.411-9.092 7.733-11.595 21.38-3.567 23.571 0 0 14.117 7.823 9.828 8.342-10.064 1.217-14.546 4.568-23.695 9.002-9.149 4.433-22.446 7.822-26.543 6.797-7.05-1.774-8.496-1.595-7.094-15.408 1.332-13.058 2.44-49.289 4.014-61.308 2.28-17.357 5.026-8.284 6.594-8.073 2.657.359 52.844-20.746 62.076-20.38zM284.989 443.25c-4.962.013-16.358 0-17.965 0-1.076 0-2.33-3.062-1.159-7.97-.371 1.563 3.7 4.664 6.684 3.543 2.337-.878 2.721-3.613 4.565-4.735 3.265 2.935 13.688 3.96 13.208 7.06-.346 2.205-4.021 2.102-5.333 2.102zM298.696 438.47c3.124.757 5.442-5.701 9.744-5.503 7.625 3.076 21.179 6.4 17.952 9.476-1.53 1.454-25.577.923-28.068.961-6.005.083-3.489-5.516-3.406-8.412 0 0 .653 2.723 3.778 3.479z" fill="#2E3192"/><path d="M230.288 186.09c-.09 4.721-7.164 13.652-8.605 14.53 0 0-3.4 1.653-4.001 1.832 0 0-4.002-4.92-6.3-2.216-2.689 3.165 2.907 7.137 1.76 11.289-2.138 7.765-6.504 4.933-6.248 16.645.135 6.003 9.475 17.305 2.65 22.52-7.823 5.984-11.62 4.197-18.7 10.975-6.883 6.593-14.27 7.785-24.13 4.312-11.191-3.94-11.793-24.263-8.74-28.453 7.78-10.661 15.686-8.118 12.46-26.91-3.118-18.176 16.53-18.47 19.565-24.864 3.29-6.94 5.134-9.412 11.517-12.327 14.821-6.772 28.97 2.415 28.772 12.666z" fill="#0088ED"/><path d="M206.894 298.78c-2.618-12.384 9.45-23.276 0-31.976-9.45-8.701-17.28-30.651-9.917-39.14 7.363-8.49.48-28.831 6.882-34.758 6.403-5.926 24.489-7.368 22.863-15.62 2.298 2.53 3.624 5.619 3.566 8.803-.045 2.352-1.825 5.747-3.777 8.675.217 3.184.3 6.19.09 8.195-1 9.258-2.587 14.024-6.922 14.39-4.11.34-4.078 9.52-2.048 11.096.006 0 .006.007.012.007.103.077.218.134.333.173 1.012.461 2.92.794 7.709-1.006 5.39-2.031 34.52-4.434 49.246-9.88 14.725-5.445 21.607-21.783 26.249-26.909 3.976-4.388 9.38-9.68 15.66-12.512 1.126 2.107 3.194 6.291-.16 8.963-5.878 4.67-8.285 1.544-11.377 5.061-4.77 5.427-17.152 25.058-21.428 27.947-2.952 1.993-32.645 15.922-38.318 18.574-6.428 4.44-12.049 9.322-12.548 16.972-.615 9.399 1.127 13.813-8.976 22.411-9.072 7.714-11.582 21.323-3.617 23.559.377.045.736.09 1.062.14 22.395 3.691 45.514 16.588 58.357 25.673 10.416 7.375 12.695 9.675 12.657 12.18 2.183 4.427.755 15.261-1.863 28.113 4.814 25.654 10.756 61.61 15.359 63.967 6.575 3.364 24.015 7.131 20.404 10.565-.544.52-4.091.743-8.534.814-9.559-5.555-16.627-4.28-19.585-12.692-4.84-13.775-13.265-87.09-39.892-106.086-26.62-19.003-48.868-13.314-51.487-25.698z" fill="#2E3192" opacity=".5"/><path d="M214.98 343.232h28.439c5.051 0 9.149 4.1 9.149 9.155h-46.73c-.007-5.055 4.09-9.155 9.142-9.155z" fill="#8BDEFC"/><path d="M157.06 274.095h29.373l2.26 1.307 4.392 12.218 5.813 35.18 6.12 14.992 25.648 14.602h-36.032c-29.29 0-35.693-33.605-35.462-46.207.192-10.546-.487-25.333-5.448-29.504-2.12-1.787.87-4.901 3.335-2.588z" fill="#00ACE8"/><path d="M238.585 343.232c-27.164 0-39.329-17.299-40.93-37.16-1.6-19.862-3.501-32.887-11.35-32.938-6.435-.045-24.681-.052-31.064-.058a2.244 2.244 0 0 0-2.24 2.242h31.421c7.523 0 8.887 18.26 8.656 30.863-.23 12.602 6.172 46.206 35.462 46.206 29.29 0 10.045-9.155 10.045-9.155zM186.548 443.558h65.668c0-3.14-2.542-5.69-5.686-5.69h-54.303c-3.137 0-5.68 2.55-5.68 5.69z" fill="#8BDEFC"/><path d="M211.254 352.387h-16.62c-29.29 0-35.693-33.604-35.462-46.206.192-10.546-.487-25.333-5.448-29.504-2.113-1.775.87-4.889 3.342-2.576h2.624c14.886 17.907 16.147 26.762 20.36 50.25 4.77 26.588 31.178 28.03 31.204 28.036z" fill="#FFF" opacity=".3"/><path d="M212.118 443.564h-25.596c0-3.14 2.542-5.689 5.685-5.689h39.496a3186.248 3186.248 0 0 0-19.585 5.69z" fill="#00ACE8"/><g><path d="M86.16 430.93c.398 5.83-2.336 11.872 2.242 12.141 6.094.352 20.23.122 20.468 0 1.3-.654.217-4.651-3.624-5.555-7.03-1.653-8.374-9.091-8.374-9.091-4.693.8-10.967-1.262-10.711 2.505zM120.426 431.57c.358 3.23-1.979 11.078 3.079 11.398 5.48.346 26.768.071 27.011-.044 1.3-.654.18-4.498-3.624-5.555-3.796-1.057-9.782-2.454-10.615-2.557-2.996-.371-2.714-3.222-2.714-3.222-4.7.794-13.534-3.575-13.137-.02z" fill="#2E3192"/><path d="M109.394 441.975c-.006.52-.179.93-.518 1.102-.237.122-14.373.353-20.468 0-1.095-.064-1.767-.46-2.17-1.102h23.156zM151.022 441.975c-.026.442-.199.788-.512.949-.237.121-21.531.39-27.011.044-1.006-.064-1.716-.429-2.222-.993h29.745z" fill="#1B1464"/><path d="M131.354 443.129c-3.348-.013-6.268-.064-7.855-.16-5.058-.314-2.721-8.17-3.08-11.398-.109-1.006.512-1.378 1.569-1.41l4.827 4.28c-.237 4.703 2.324 7.317 4.54 8.688zM86.167 430.93c-.038-.57.077-1.006.307-1.346l1.53 2.928c-.287 4.331 4.834 8.707 9.553 8.176 2.503-.282 3.944 1.14 4.75 2.543-4.597.045-10.5.032-13.899-.166-4.584-.257-1.844-6.298-2.24-12.135z" fill="#0088ED" opacity=".5"/><path d="M123.16 258.725l-12.645 87.486s-12.702 79.062-13.637 82.214c-1.018 3.44-10.122 6.31-10.71 2.197-3.785-26.274-4.213-76.921-3.196-87.153 1.089-10.937-14.225-77.806-4.916-84.744 9.308-6.94 45.103 0 45.103 0z" fill="#9E005D"/><path d="M86.16 430.93c-3.783-26.275-6.145-67.459-4.96-86.135.697-10.969-4.803-50.563-7.287-64.313-2.061-11.43 49.24-21.456 49.24-21.456l-1.018 7.758c-14.936-5.125-31.685 8.599-33.061 20.477-1.39 12.007 7.88 30.26 9.155 55.01.839 16.305-12.516 33.406-10.23 90.235-.91-.16-1.736-.884-1.838-1.576z" fill="#EF2673"/><path d="M121.546 93.477s4.565 21.707 0 29.132c-4.565 7.426-10.941 5.196-13.822 6.92-.852.506-3.042 2.723-1.409 5.369 5.672 9.187-7.676 16.62-25.583 3.998-2.408-1.698 2.868-6.273 5.98-9.976 2.932-3.485 6.203-7.31 8.002-11.455 3.707-8.554 3.47-19.836 7.433-23.975 3.97-4.152 19.399-.013 19.399-.013z" fill="#8BDEFC"/><path d="M138.582 166.138c-3.002-12.487-5.8-21.008-7.202-27.505-.775-3.581 1.876-7.035 2.868-9.79 1.101-3.043.531-5.24-1.152-5.83-1.857-.654-6.838-2.678-7.235-3.972-1.344-4.427.058-9.598-1.741-9.515-3.048.141.083 14.14-3.08 16.985-1.805 1.621-9.82.923-9.866 2.999-.09 4.17 5.878-3.23 9.034 7.195 1.402 4.638.839 8.303 7.56 34.398.744 2.883 11.512-2.07 10.814-4.965z" fill="#8BDEFC"/><path d="M91.263 139.447c17.907 12.621 20.724 4.632 15.052-4.556-1.633-2.646.557-4.862 1.409-5.369 1.056-.627 2.586-.73 4.327-.967-.531.237-.864.538-.87.955-.09 4.17 5.877-3.23 9.033 7.195 1.402 4.638.839 8.303 7.561 34.398.743 2.883 11.512-2.07 10.82-4.965-3.003-12.487-5.8-21.008-7.202-27.505-.775-3.581 1.875-7.035 2.868-9.79 1.101-3.043.531-5.24-1.153-5.83-1.856-.654-6.837-2.678-7.234-3.972-1.345-4.427.057-9.598-1.742-9.515a.908.908 0 0 0-.582.263c-.263-8.066-1.991-16.306-1.991-16.306s-15.43-4.138-19.393 0c-3.963 4.14-4.82 23.258-8.527 31.81-1.8 4.146-1.031 4.146-3.963 7.632-3.131 3.703-.82 4.824 1.587 6.522zm23.945-11.584c2.17-.718 4.417-2.133 6.338-5.26.422-.692.768-1.506 1.05-2.415-.083 2.78-.403 5.285-1.55 6.317-.94.84-3.546 1.057-5.838 1.358z" fill="#2E3192" opacity=".5"/><path d="M132.372 284.166s8.297 43.273 8.297 49.731c0 6.458-7.541 89.742-7.106 97.693.218 3.94-11.979 3.665-13.137-.013-1.006-3.178-4.527-80.56-7.984-91.677-3.45-11.116-42.837-78.203-38.56-84.059 4.282-5.862 58.49 28.325 58.49 28.325z" fill="#9E005D"/><path d="M123.575 245.187s-9.629-.366-5.473 18.599l1.331 15.787c3.003 12.833 7.043 42.023 11.05 70.136 3.445 24.193-4.129 73.936-3.662 84.725-3.777-.032-5.87-.852-6.402-2.517-1.005-3.178-4.526-80.561-7.983-91.677-1.863-5.997-19.95-40.056-30.117-57.598l-1.133-30.004c14.002-4.235 42.39-7.451 42.39-7.451z" fill="#EF2673"/><path d="M88.235 127.094c-1.517 1.813-2.682 3.761-8.694 7.003-6.831 3.684 38.055 12.705 31.633 7.048-3.374-2.973-4.174-5.856-5.307-6.69-4.418-3.273-17.632-7.36-17.632-7.36z" fill="#1B1464"/><path d="M136.412 157.566c5.467 15.735 7.926 19.842 7.926 19.842l-14.604-3.351-5.397-14.076 12.075-2.415z" fill="#2E3192"/><path d="M61.122 167.932c.627-28.556 10.454-29.799 18.272-33.784 7.356-3.748 25.929 1.724 32.619 7.682 16.703 13.826 36.806 35.873 35.949 46.354-.858 10.482-1.55 12.141-6.748 12.212-3.016.045-10.532-5.247-17.645-11.385-6.524-5.997.14 44.957 1.889 58.495 1.748 13.538 5.46 31.08 6.908 36.66 1.876 7.227-56.013 10.52-58.555-4.158-3.989-23.065-13.336-82.796-12.69-112.076z" fill="#0088ED"/><path d="M134.46 186.185c.108-3.498 2.445-6.759 4.526-7.304 1.46-.384 2.445-1.166 5.954.02 2.1 3.844 3.246 7.265 3.028 9.937-.07.826-.167 1.62-.275 2.396-.781 7.759-1.825 9.098-6.473 9.168-3.015.045-10.532-5.247-17.645-11.385-.934-.858-1.594-.544-2.042.654 2.535-10.06 8.182-5.055 12.926-3.486z" fill="#2E3192" opacity=".5"/><path d="M79.534 134.097c-3.758 4.786-.313 11.186 1.652 16.171 9.719 24.667-7.478 44.208 8.848 71.078 16.326 26.871 25.142 28.864 31.493 67.805-16.422 2.8-45.91 1.25-47.71-9.143-3.995-23.065-14.014-82.822-12.695-112.076 1.222-27.133 7.906-28.991 18.412-33.835z" fill="#8BDEFC" opacity=".7"/><path d="M140.727 176.479c-2.638.692-5.704 5.74-4.091 10.116 1.39 3.768 3.604 7.714 7.625 7.362 4.213-.372 7.395-3.383 7.395-5.145-.007-3.312-3.118-11.66-4.783-12.244-3.668-1.287-4.66-.474-6.146-.09z" fill="#8BDEFC"/><path d="M116.917 76.909c-7.433-.02-4.117 7.4-12.497 6.323-4.879-.627-5.327 3.197-8.906 6.061-3.578 2.858-10.787 3.614-8.22 11.04 2.567 7.425 6.908 18.548 3.989 22.891-1.025 1.525 8.675 4.818 10.563 3.217 3.195-2.71 8.355-7.823 8.355-7.823-1.71-1.064-3.361-7.048-.518-7.753 3.028-.75 4.36 3.954 4.36 3.954l3.95-1.14c-.39-8.215 5.269-8.298 5.269-8.298-.43-5.933 15.896-15.383 9.891-23.078-3.265-4.19-9.584 3.178-9.584.27.006-5.26-4.219-5.658-6.652-5.664z" fill="#2E3192"/></g><path d="M95.329 120.175c5.256-14.256-4.206-18.318 9.219-26.647 13.42-8.322 20.333 5.83 29.405-4.856-2.266 6.067-10.992 12.327-10.678 16.69 0 0-5.66.083-5.27 8.297l-3.95 1.14s-1.331-4.696-4.36-3.953c-2.842.705-1.19 6.69.519 7.753 0 0-5.16 5.112-8.355 7.822-1.19 1.013-5.487.077-8.24-1.134.43-1.512 1.006-3.203 1.71-5.112z" fill="#2E3192" opacity=".5"/><path d="M88.235 127.094s1.742.538 4.162 1.378c-2.952 5.055-7.978 3.338-12.863 5.625 6.019-3.248 7.177-5.19 8.701-7.003z" fill="#2E3192"/><path fill="#29ABE2" d="M282.255 251.26h1.536l22.965-24.205h-1.536zM292.889 251.26h1.536l22.972-24.205h-1.537zM303.53 251.26h1.536l22.965-24.205h-1.537zM314.17 251.26h1.53l22.971-24.205h-1.536z"/><path d="M323.536 235.736a.956.956 0 0 1 .711-.288h1.492v.775l-.461.052 1.972 2.819h-1.537l-2.145-2a.956.956 0 0 1-.032-1.358z" fill="#29ABE2"/><path d="M328.44 237.838l-1.997-2.095a.952.952 0 0 0-1.37-.007.956.956 0 0 0 .032 1.359l2.145 1.999 1.19-1.256z" fill="#8BDEFC"/><path d="M306.071 242.931a.956.956 0 0 1 .71-.288h1.493v.775l-.461.052 1.971 2.819h-1.536l-2.145-2a.956.956 0 0 1-.032-1.358z" fill="#29ABE2"/><path d="M310.975 245.033l-1.997-2.095a.952.952 0 0 0-1.37-.007.956.956 0 0 0 .032 1.359l2.144 1.999 1.191-1.256z" fill="#8BDEFC"/><path d="M305.719 232.09a.956.956 0 0 1 .71-.287h1.492v.775l-.46.051 1.971 2.82h-1.536l-2.145-2a.956.956 0 0 1-.032-1.358z" fill="#29ABE2"/><path d="M310.623 234.192l-1.997-2.095a.952.952 0 0 0-1.37-.006.956.956 0 0 0 .032 1.358l2.144 2 1.191-1.257z" fill="#8BDEFC"/><path d="M295.936 231.188a.956.956 0 0 1 .711-.289h1.492v.775l-.461.052 1.972 2.819h-1.537l-2.145-2a.956.956 0 0 1-.032-1.357z" fill="#29ABE2"/><path d="M300.834 233.295l-1.997-2.095a.952.952 0 0 0-1.37-.006.956.956 0 0 0 .032 1.358l2.144 2 1.191-1.257z" fill="#8BDEFC"/><path d="M281.211 235.5a.956.956 0 0 1 .71-.289h1.493v.775l-.461.052 1.972 2.819h-1.537l-2.145-2a.956.956 0 0 1-.032-1.358z" fill="#29ABE2"/><path d="M286.109 237.6l-1.998-2.094a.952.952 0 0 0-1.37-.007.956.956 0 0 0 .032 1.359l2.145 1.999 1.191-1.256z" fill="#8BDEFC"/><g><path fill="#FFF" d="M417.164 119.9h-3.227V57.444h3.227zM390.247 119.9h-3.226V57.444h3.226zM363.324 119.9h-3.227V57.444h3.227zM336.407 119.9h-3.226V57.444h3.226zM309.49 119.9h-3.226V57.444h3.227z"/><path d="M417.97 75.576v-9.655a2.419 2.419 0 1 0-4.84 0v9.655a2.419 2.419 0 0 0 2.42 2.422 2.415 2.415 0 0 0 2.42-2.422zM391.054 103.01V83.707a2.419 2.419 0 1 0-4.84 0v19.305a2.419 2.419 0 0 0 2.42 2.421 2.423 2.423 0 0 0 2.42-2.421zM337.218 87.416V73.763a2.419 2.419 0 1 0-4.84 0v13.653a2.419 2.419 0 0 0 2.42 2.422 2.423 2.423 0 0 0 2.42-2.422zM310.297 87.416v-4.613a2.419 2.419 0 1 0-4.84 0v4.613a2.419 2.419 0 1 0 4.84 0zM364.133 107.194V66.792a2.419 2.419 0 1 0-4.84 0v40.402a2.419 2.419 0 1 0 4.84 0z" fill="#EF2673"/></g><g><path d="M415.146 174.691h43.567a2.515 2.515 0 0 0 2.51-2.511v-43.6a2.515 2.515 0 0 0-2.51-2.51h-43.567a2.515 2.515 0 0 0-2.51 2.51v43.6a2.519 2.519 0 0 0 2.51 2.511z" fill="#8BDEFC" opacity=".7"/><path d="M419.564 149.608c0 9.598 7.772 17.376 17.362 17.376 9.591 0 17.363-7.778 17.363-17.376 0-9.597-7.772-17.375-17.363-17.375-9.59 0-17.362 7.778-17.362 17.375zm4.065 0c0-7.349 5.954-13.307 13.297-13.307 7.344 0 13.298 5.958 13.298 13.307s-5.954 13.307-13.298 13.307c-7.343 0-13.297-5.958-13.297-13.307z" fill="#FFF"/><path d="M423.629 149.608c0 4.363 2.1 8.233 5.34 10.661.793.596 1.05 1.672.563 2.537l-.083.148a1.951 1.951 0 0 1-2.869.608c-4.257-3.165-7.023-8.239-7.023-13.954 0-8.841 6.6-16.145 15.141-17.234 1.178-.148 2.222.743 2.222 1.928v.173c0 .993-.749 1.807-1.729 1.935-6.517.852-11.562 6.432-11.562 13.198z" fill="#2E3192"/></g><g><path d="M162.354 91.593h129.005c3.227 0 5.864-2.64 5.864-5.868V5.869c0-3.23-2.637-5.869-5.864-5.869H162.354c-3.227 0-5.865 2.64-5.865 5.869v79.856c0 3.222 2.638 5.868 5.865 5.868z" fill="#8BDEFC" opacity=".7"/><path fill="#FFF" d="M229.532 17.424h-6.102V11.32h6.102zM213.755 17.424h-6.102V11.32h6.102z"/><path fill="#EF2673" d="M197.984 17.424h-6.101V11.32h6.101zM182.214 17.424h-6.102V11.32h6.102z"/><path fill="#FFF" d="M276.85 33.134h-6.102v-6.106h6.102zM261.08 33.134h-6.102v-6.106h6.101zM245.302 33.134h-6.101v-6.106h6.101zM229.532 33.134h-6.102v-6.106h6.102zM213.755 33.134h-6.102v-6.106h6.102z"/><path fill="#EF2673" d="M197.984 33.134h-6.101v-6.106h6.101zM182.214 33.134h-6.102v-6.106h6.102z"/><path fill="#FFF" d="M276.85 48.85h-6.102v-6.106h6.102z"/><path fill="#2E3192" d="M261.08 48.85h-6.102v-6.106h6.101z"/><path fill="#FFF" d="M245.302 48.85h-6.101v-6.106h6.101zM229.532 48.85h-6.102v-6.106h6.102zM213.755 48.85h-6.102v-6.106h6.102z"/><path fill="#EF2673" d="M197.984 48.85h-6.101v-6.106h6.101zM182.214 48.85h-6.102v-6.106h6.102z"/><path fill="#FFF" d="M276.85 64.56h-6.102v-6.107h6.102zM261.08 64.56h-6.102v-6.107h6.101zM245.302 64.56h-6.101v-6.107h6.101zM229.532 64.56h-6.102v-6.107h6.102zM213.755 64.56h-6.102v-6.107h6.102z"/><path fill="#EF2673" d="M197.984 64.56h-6.101v-6.107h6.101zM182.214 64.56h-6.102v-6.107h6.102z"/><path fill="#FFF" d="M276.85 80.269h-6.102v-6.106h6.102zM261.08 80.269h-6.102v-6.106h6.101zM245.302 80.269h-6.101v-6.106h6.101zM229.532 80.269h-6.102v-6.106h6.102zM213.755 80.269h-6.102v-6.106h6.102z"/><path d="M156.49 5.869c0-3.23 2.637-5.869 5.864-5.869h85.905c-18.663 15.114-24.546 12.34-40.808 23.981-17.913 12.82-34.079 4.998-50.955 6.747V5.868h-.007z" fill="#FFF" opacity=".3"/></g></g></svg>